<?xml version="1.0" encoding="UTF-8" standalone="no"?>
<svg
   id="visual"
   viewBox="0 0 900 600"
   width="900"
   height="600"
   version="1.1"
   sodipodi:docname="blob_2_dark.svg"
   inkscape:version="1.3.2 (091e20ef0f, 2023-11-25, custom)"
   xmlns:inkscape="http://www.inkscape.org/namespaces/inkscape"
   xmlns:sodipodi="http://sodipodi.sourceforge.net/DTD/sodipodi-0.dtd"
   xmlns="http://www.w3.org/2000/svg"
   xmlns:svg="http://www.w3.org/2000/svg">
  <defs
     id="defs4" />
  <sodipodi:namedview
     id="namedview4"
     pagecolor="#505050"
     bordercolor="#ffffff"
     borderopacity="1"
     inkscape:showpageshadow="0"
     inkscape:pageopacity="0"
     inkscape:pagecheckerboard="1"
     inkscape:deskcolor="#505050"
     inkscape:zoom="1.9084203"
     inkscape:cx="209.59744"
     inkscape:cy="229.77119"
     inkscape:window-width="1802"
     inkscape:window-height="1040"
     inkscape:window-x="0"
     inkscape:window-y="0"
     inkscape:window-maximized="1"
     inkscape:current-layer="g4" />
  <g
     id="g4">
    <g
       transform="translate(219 306)"
       id="g1"
       style="stroke-width:1;stroke-dasharray:none;stroke:#ffffff;stroke-opacity:1">
      <path
         d="m 48.6,-52.1 c 22.6,13.1 54.8,20.7 61.6,36.1 6.9,15.5 -11.5,38.9 -26.3,64.4 -14.8,25.5 -25.9,53 -46.7,65.7 -20.8,12.7 -51.3,10.6 -69,-5.2 C -49.5,93.1 -54.4,63.7 -69.6,39.3 -84.8,14.9 -116.48893,-4.3477763 -122.18893,-28.647776 -127.88893,-53.047776 -107.7,-82.4 -85.1,-95.5 c 22.7,-13.1 53.9,-10 76,0.8 22.1,10.9 35.1,29.5 57.7,42.6 z"
         stroke="#000000"
         fill="none"
         stroke-width="3"
         id="path1"
         style="stroke-width:1;stroke-dasharray:none;stroke:#ffffff;stroke-opacity:1"
         sodipodi:nodetypes="scsssscccs" />
    </g>
    <g
       transform="translate(495 16)"
       id="g2"
       style="stroke-width:1;stroke-dasharray:none;stroke:#ffffff;stroke-opacity:1">
      <path
         d="M26.9 -26.3C38.3 -22.4 53.4 -17.3 57.3 -8.1C61.3 1 54.1 14 44.6 21.5C35.2 29 23.6 30.9 13.6 32.2C3.7 33.6 -4.6 34.4 -11.9 32C-19.2 29.6 -25.7 24.1 -32.5 16.6C-39.3 9.2 -46.5 -0.1 -45.2 -8C-43.9 -15.9 -34.1 -22.4 -25.1 -26.7C-16.2 -30.9 -8.1 -33 -0.2 -32.8C7.7 -32.5 15.4 -30.1 26.9 -26.3Z"
         stroke="#000"
         fill="none"
         stroke-width="3"
         id="path2"
         style="stroke-width:1;stroke-dasharray:none;stroke:#ffffff;stroke-opacity:1" />
    </g>
    <g
       transform="translate(868 295)"
       id="g3"
       style="stroke-width:1;stroke-dasharray:none;stroke:#ffffff;stroke-opacity:1">
      <path
         d="M 33.1,-35.2 C 44.9,-29.5 57.9,-21 63.9,-8.1 70,4.8 69.2,22.1 60.8,33.6 52.4,45.1 36.4,50.7 20.7,56.1 4.9,61.5 1.6807803,72.123973 -29.943818,72.859588 -52.324146,58.60872 -48,46.6 -61.4,31.5 -74.9,16.4 -91,-1.3 -88.3,-15.5 c 2.6,-14.2 24,-24.9 41.8,-29.5 17.9,-4.6 32.2,-3 44.7,-0.8 12.4,2.2 23.1,5 34.9,10.6 z"
         stroke="#000000"
         fill="none"
         stroke-width="3"
         id="path3"
         style="stroke-width:1;stroke-dasharray:none;stroke:#ffffff;stroke-opacity:1"
         sodipodi:nodetypes="ccsccccccc" />
    </g>
  </g>
</svg>
