<?xml version="1.0" encoding="UTF-8" standalone="no"?>
<svg
   version="1.1"
   viewBox="0 0 900 600"
   id="svg2"
   sodipodi:docname="blob_dark.svg"
   inkscape:version="1.3.2 (091e20ef0f, 2023-11-25, custom)"
   xmlns:inkscape="http://www.inkscape.org/namespaces/inkscape"
   xmlns:sodipodi="http://sodipodi.sourceforge.net/DTD/sodipodi-0.dtd"
   xmlns="http://www.w3.org/2000/svg"
   xmlns:svg="http://www.w3.org/2000/svg">
  <defs
     id="defs2" />
  <sodipodi:namedview
     id="namedview2"
     pagecolor="#505050"
     bordercolor="#ffffff"
     borderopacity="1"
     inkscape:showpageshadow="0"
     inkscape:pageopacity="0"
     inkscape:pagecheckerboard="1"
     inkscape:deskcolor="#505050"
     inkscape:zoom="1.24"
     inkscape:cx="347.58065"
     inkscape:cy="193.95161"
     inkscape:window-width="1802"
     inkscape:window-height="1040"
     inkscape:window-x="0"
     inkscape:window-y="0"
     inkscape:window-maximized="1"
     inkscape:current-layer="svg2" />
  <g
     transform="translate(900)"
     id="g1">
    <path
       d="m 0,405.6 c -41.4,-15 -82.9,-30.1 -115.3,-50.9 -32.3,-20.8 -55.6,-47.3 -96.3,-63.5 -40.7,-16.1 -98.7,-21.8 -116.6,-52.8 -17.8,-31 4.4,-87.2 -1.8,-131.2 C -336.2,63.3 -370.9,31.6 -405.6,0"
       fill="none"
       stroke="#ffffff"
       id="path1"
       sodipodi:nodetypes="cccccc" />
  </g>
  <g
     transform="translate(0 600)"
     id="g2">
    <path
       d="m 0,-405.6 c 42.2,8.5 84.4,17.1 119,39.4 34.6,22.4 61.6,58.5 81.4,90.3 19.9,31.9 32.7,59.5 67.4,81.3 34.7,21.8 91.3,37.8 118,69.3 26.6,31.4 23.2,78.4 19.8,125.3"
       fill="none"
       stroke="#ffffff"
       id="path2"
       sodipodi:nodetypes="cccscc" />
  </g>
</svg>
